<?xml version="1.0" encoding="utf-8"?>
<svg xmlns="http://www.w3.org/2000/svg" style="display: none;">

<symbol id="logo" viewBox="0 0 150 49" fill="none" xmlns="http://www.w3.org/2000/svg">
  <path d="M12.0975 12.2266C8.73065 12.2266 5.54954 13.6636 3.25077 16.1371V13.1924H0V49.0001H3.25077V32.7453C5.54954 35.2189 8.73065 36.6559 12.0975 36.6559C18.7384 36.6559 24.1486 31.1669 24.1486 24.4294C24.1486 17.6919 18.7384 12.2266 12.0975 12.2266ZM20.9211 24.453C20.9211 29.3766 16.9737 33.3814 12.1207 33.3814C7.2678 33.3814 3.32043 29.3766 3.32043 24.453C3.32043 19.5294 7.2678 15.5246 12.1207 15.5246C16.9737 15.5246 20.9211 19.5294 20.9211 24.453Z" fill="#146EF5"/>
  <path d="M69.6825 12.2264C66.3156 12.2264 63.1345 13.6635 60.8357 16.137V0H57.585V35.8077H60.8357V32.7452C63.1345 35.2188 66.3156 36.6558 69.6825 36.6558C76.3234 36.6558 81.7336 31.1668 81.7336 24.4293C81.7336 17.6918 76.3234 12.2264 69.6825 12.2264ZM78.506 24.4529C78.506 29.3764 74.5586 33.3813 69.7057 33.3813C64.8528 33.3813 60.9054 29.3764 60.9054 24.4529C60.9054 19.5293 64.8528 15.5245 69.7057 15.5245C74.5586 15.5245 78.506 19.5293 78.506 24.4529Z" fill="#146EF5"/>
  <path d="M90.5574 0H87.3066V35.8077H90.5574V0Z" fill="#146EF5"/>
  <path d="M146.749 13.1924V23.3457C146.749 27.2799 146.192 29.4943 144.822 30.9313C142.825 33.0044 140.154 33.452 138.25 33.452C136.3 33.452 133.56 33.0044 131.61 30.9313C130.193 29.4236 129.566 27.1385 129.566 23.3457V13.1924H126.315V23.3457C126.315 28.1044 127.198 31.0491 129.241 33.2164C131.424 35.5251 134.535 36.7265 138.227 36.7265H138.297C141.919 36.703 144.984 35.478 147.144 33.2164C149.651 30.578 149.976 26.7381 149.976 23.3457V13.1924H146.749Z" fill="#146EF5"/>
  <path d="M117.028 23.3457C117.028 27.2799 116.471 29.4943 115.101 30.9313C113.104 33.0044 110.434 33.452 108.53 33.452C106.579 33.452 103.839 33.0044 101.889 30.9313C100.472 29.4236 99.8455 27.1385 99.8455 23.3457V13.1924H96.5947V23.3457C96.5947 28.1044 97.4771 31.0491 99.5204 33.2164C101.703 35.5251 104.815 36.7265 108.506 36.7265H108.576C112.198 36.703 115.263 35.478 117.423 33.2164C119.931 30.578 120.256 26.7381 120.256 23.3457V13.1924H117.005V23.3457H117.028Z" fill="#146EF5"/>
  <path d="M48.7616 23.3457C48.7616 27.2799 48.2043 29.4943 46.8343 30.9313C44.8374 33.0044 42.1671 33.452 40.2631 33.452C38.3126 33.452 35.5727 33.0044 33.6222 30.9313C32.2058 29.4236 31.5789 27.1385 31.5789 23.3457V13.1924H28.3281V23.3457C28.3281 28.1044 29.2105 31.0491 31.2538 33.2164C33.4365 35.5251 36.5479 36.7265 40.2399 36.7265H40.3096C43.9318 36.703 46.9969 35.478 49.1563 33.2164C51.664 30.578 51.9891 26.7381 51.9891 23.3457V13.1924H48.7383V23.3457H48.7616Z" fill="#146EF5"/>
</symbol>


<symbol id="chevron-down" viewBox="0 0 12 8" fill="currentColor">
  <path d="M1.42 0.0898433L6 4.66984L10.59 0.0898437L12 1.49984L6 7.49984L-6.16331e-08 1.49984L1.42 0.0898433Z"/> 
</symbol>

<symbol id="flag-usa" viewBox="0 0 32 23">
  <path d="M0 0.5H32V22.5H0V0.5Z" fill="white"/>
  <path d="M0 0.5H32V2.19181H0V0.5ZM0 3.88363H32V5.57544H0V3.88363ZM0 7.26725H32V8.95906H0V7.26725ZM0 10.6509H32V12.3427H0V10.6509ZM0 14.0409H32V15.7327H0V14.0409ZM0 17.4246H32V19.1164H0V17.4246ZM0 20.8082H32V22.5H0V20.8082Z" fill="#D80027"/>
  <path d="M0 0.5H16V12.3427H0V0.5Z" fill="#2E52B2"/>
  <path d="M2.98168 9.43509L2.73216 8.6117L2.4577 9.43509H1.63431L2.30175 9.93041L2.05224 10.7538L2.73216 10.2456L3.39337 10.7538L3.13762 9.93041L3.81754 9.43509H2.98168ZM6.49357 9.43509L6.23782 8.6117L5.97583 9.43509H5.15244L5.81988 9.93041L5.57037 10.7538L6.23782 10.2456L6.9115 10.7538L6.66199 9.93041L7.32943 9.43509H6.49357ZM10.0179 9.43509L9.74971 8.6117L9.5002 9.43509H8.65809L9.34425 9.93041L9.08226 10.7538L9.74971 10.2456L10.4359 10.7538L10.1739 9.93041L10.8413 9.43509H10.0179ZM13.5236 9.43509L13.2741 8.6117L13.0121 9.43509H12.1825L12.8561 9.93041L12.6066 10.7538L13.2741 10.2456L13.9478 10.7538L13.6795 9.93041L14.3657 9.43509H13.5236ZM6.23782 5.34386L5.97583 6.16725H5.15244L5.81988 6.67544L5.57037 7.48596L6.23782 6.98421L6.9115 7.48596L6.66199 6.67544L7.32943 6.16725H6.49357L6.23782 5.34386ZM2.73216 5.34386L2.4577 6.16725H1.63431L2.30175 6.67544L2.05224 7.48596L2.73216 6.98421L3.39337 7.48596L3.13762 6.67544L3.81754 6.16725H2.98168L2.73216 5.34386ZM9.74971 5.34386L9.5002 6.16725H8.65809L9.34425 6.67544L9.08226 7.48596L9.74971 6.98421L10.4359 7.48596L10.1739 6.67544L10.8413 6.16725H10.0179L9.74971 5.34386ZM13.2741 5.34386L13.0121 6.16725H12.1825L12.8561 6.67544L12.6066 7.48596L13.2741 6.98421L13.9478 7.48596L13.6795 6.67544L14.3657 6.16725H13.5236L13.2741 5.34386ZM2.73216 2.08889L2.4577 2.89942H1.63431L2.30175 3.4076L2.05224 4.22456L2.73216 3.71637L3.39337 4.22456L3.13762 3.4076L3.81754 2.89942H2.98168L2.73216 2.08889ZM6.23782 2.08889L5.97583 2.89942H5.15244L5.81988 3.4076L5.57037 4.22456L6.23782 3.71637L6.9115 4.22456L6.66199 3.4076L7.32943 2.89942H6.49357L6.23782 2.08889ZM9.74971 2.08889L9.5002 2.89942H8.65809L9.34425 3.4076L9.08226 4.22456L9.74971 3.71637L10.4359 4.22456L10.1739 3.4076L10.8413 2.89942H10.0179L9.74971 2.08889ZM13.2741 2.08889L13.0121 2.89942H12.1825L12.8561 3.4076L12.6066 4.22456L13.2741 3.71637L13.9478 4.22456L13.6795 3.4076L14.3657 2.89942H13.5236L13.2741 2.08889Z" fill="white"/>
</symbol>

<symbol id="check-bold" viewBox="0 0 24 24" xmlns="http://www.w3.org/2000/svg">
  <path d="M9.00004 20.4199L2.79004 14.2099L5.62004 11.3799L9.00004 14.7699L18.88 4.87988L21.71 7.70988L9.00004 20.4199Z" fill="#146EF5"/>
</symbol>

<symbol id="star" viewBox="0 0 28 26" xmlns="http://www.w3.org/2000/svg">
  <path d="M13.9998 21.0267L22.2398 26.0001L20.0532 16.6267L27.3332 10.3201L17.7465 9.49341L13.9998 0.666748L10.2532 9.49341L0.666504 10.3201L7.93317 16.6267L5.75984 26.0001L13.9998 21.0267Z" fill="black"/>
</symbol>

<symbol id="facebook" viewBox="0 0 50 50" xmlns="http://www.w3.org/2000/svg">
  <path d="M25.0005 0.100098C11.2505 0.100098 0.000488281 11.3251 0.000488281 25.1501C0.000488281 37.6501 9.15049 48.0251 21.1005 49.9001V32.4001H14.7505V25.1501H21.1005V19.6251C21.1005 13.3501 24.8255 9.9001 30.5505 9.9001C33.2755 9.9001 36.1255 10.3751 36.1255 10.3751V16.5501H32.9755C29.8755 16.5501 28.9005 18.4751 28.9005 20.4501V25.1501H35.8505L34.7255 32.4001H28.9005V49.9001C34.7916 48.9697 40.156 45.9639 44.0253 41.4252C47.8946 36.8866 50.0139 31.1142 50.0005 25.1501C50.0005 11.3251 38.7505 0.100098 25.0005 0.100098Z" fill="#146EF5"/>
</symbol>


<symbol id="linkedin" viewBox="0 0 46 46" xmlns="http://www.w3.org/2000/svg">
  <path d="M40.5 0.5C41.8261 0.5 43.0979 1.02678 44.0355 1.96447C44.9732 2.90215 45.5 4.17392 45.5 5.5V40.5C45.5 41.8261 44.9732 43.0979 44.0355 44.0355C43.0979 44.9732 41.8261 45.5 40.5 45.5H5.5C4.17392 45.5 2.90215 44.9732 1.96447 44.0355C1.02678 43.0979 0.5 41.8261 0.5 40.5V5.5C0.5 4.17392 1.02678 2.90215 1.96447 1.96447C2.90215 1.02678 4.17392 0.5 5.5 0.5H40.5ZM39.25 39.25V26C39.25 23.8385 38.3913 21.7655 36.8629 20.2371C35.3345 18.7087 33.2615 17.85 31.1 17.85C28.975 17.85 26.5 19.15 25.3 21.1V18.325H18.325V39.25H25.3V26.925C25.3 25 26.85 23.425 28.775 23.425C29.7033 23.425 30.5935 23.7937 31.2499 24.4501C31.9063 25.1065 32.275 25.9967 32.275 26.925V39.25H39.25ZM10.2 14.4C11.3139 14.4 12.3822 13.9575 13.1698 13.1698C13.9575 12.3822 14.4 11.3139 14.4 10.2C14.4 7.875 12.525 5.975 10.2 5.975C9.07946 5.975 8.00482 6.42013 7.21247 7.21247C6.42013 8.00482 5.975 9.07946 5.975 10.2C5.975 12.525 7.875 14.4 10.2 14.4ZM13.675 39.25V18.325H6.75V39.25H13.675Z" fill="#146EF5"/>
</symbol>

<symbol id="calendar" viewBox="0 0 27 30"  xmlns="http://www.w3.org/2000/svg">
  <path d="M16 16.3333H18V20.0933L21.2533 21.9732L20.2533 23.7066L16 21.2533V16.3333ZM21.3333 9.66658H2.66667V24.3333H8.89333C8.32 23.1199 8 21.7599 8 20.3333C8 17.8579 8.98333 15.4839 10.7337 13.7336C12.484 11.9832 14.858 10.9999 17.3333 10.9999C18.76 10.9999 20.12 11.3199 21.3333 11.8933V9.66658ZM2.66667 26.9999C1.18667 26.9999 0 25.7999 0 24.3333V5.66658C0 4.18658 1.18667 2.99992 2.66667 2.99992H4V0.333252H6.66667V2.99992H17.3333V0.333252H20V2.99992H21.3333C22.0406 2.99992 22.7189 3.28087 23.219 3.78097C23.719 4.28106 24 4.95934 24 5.66658V13.7999C25.6533 15.4799 26.6667 17.7866 26.6667 20.3333C26.6667 22.8086 25.6833 25.1826 23.933 26.9329C22.1827 28.6833 19.8087 29.6666 17.3333 29.6666C14.7867 29.6666 12.48 28.6532 10.8 26.9999H2.66667ZM17.3333 13.8666C15.6183 13.8666 13.9734 14.5479 12.7607 15.7606C11.548 16.9734 10.8667 18.6182 10.8667 20.3333C10.8667 23.9066 13.76 26.7999 17.3333 26.7999C18.1825 26.7999 19.0234 26.6327 19.808 26.3077C20.5926 25.9827 21.3055 25.5064 21.906 24.9059C22.5064 24.3054 22.9828 23.5925 23.3078 22.8079C23.6327 22.0234 23.8 21.1825 23.8 20.3333C23.8 16.7599 20.9067 13.8666 17.3333 13.8666Z" fill="black"/>
</symbol>

<symbol id="group" viewBox="0 0 32 20" xmlns="http://www.w3.org/2000/svg">
  <path d="M16 0.333252C17.2377 0.333252 18.4247 0.824917 19.2998 1.70009C20.175 2.57526 20.6667 3.76224 20.6667 4.99992C20.6667 6.2376 20.175 7.42458 19.2998 8.29975C18.4247 9.17492 17.2377 9.66659 16 9.66659C14.7623 9.66659 13.5753 9.17492 12.7002 8.29975C11.825 7.42458 11.3333 6.2376 11.3333 4.99992C11.3333 3.76224 11.825 2.57526 12.7002 1.70009C13.5753 0.824917 14.7623 0.333252 16 0.333252ZM6.66667 3.66659C7.41333 3.66659 8.10667 3.86659 8.70667 4.22659C8.50667 6.13325 9.06667 8.02659 10.2133 9.50659C9.54667 10.7866 8.21333 11.6666 6.66667 11.6666C5.6058 11.6666 4.58839 11.2452 3.83824 10.495C3.08809 9.74487 2.66667 8.72745 2.66667 7.66659C2.66667 6.60572 3.08809 5.5883 3.83824 4.83816C4.58839 4.08801 5.6058 3.66659 6.66667 3.66659ZM25.3333 3.66659C26.3942 3.66659 27.4116 4.08801 28.1618 4.83816C28.9119 5.5883 29.3333 6.60572 29.3333 7.66659C29.3333 8.72745 28.9119 9.74487 28.1618 10.495C27.4116 11.2452 26.3942 11.6666 25.3333 11.6666C23.7867 11.6666 22.4533 10.7866 21.7867 9.50659C22.9333 8.02659 23.4933 6.13325 23.2933 4.22659C23.8933 3.86659 24.5867 3.66659 25.3333 3.66659ZM7.33333 17.3333C7.33333 14.5733 11.2133 12.3333 16 12.3333C20.7867 12.3333 24.6667 14.5733 24.6667 17.3333V19.6666H7.33333V17.3333ZM0 19.6666V17.6666C0 15.8133 2.52 14.2533 5.93333 13.7999C5.14667 14.7066 4.66667 15.9599 4.66667 17.3333V19.6666H0ZM32 19.6666H27.3333V17.3333C27.3333 15.9599 26.8533 14.7066 26.0667 13.7999C29.48 14.2533 32 15.8133 32 17.6666V19.6666Z" fill="black"/>
</symbol>


<symbol id="globe" viewBox="0 0 28 28" xmlns="http://www.w3.org/2000/svg">
  <path d="M19.8132 16.6667C19.9198 15.7867 19.9998 14.9067 19.9998 14.0001C19.9998 13.0934 19.9198 12.2134 19.8132 11.3334H24.3198C24.5332 12.1867 24.6665 13.0801 24.6665 14.0001C24.6665 14.9201 24.5332 15.8134 24.3198 16.6667M17.4532 24.0801C18.2532 22.6001 18.8665 21.0001 19.2932 19.3334H23.2265C21.9465 21.5334 19.9065 23.2401 17.4532 24.0801ZM17.1198 16.6667H10.8798C10.7465 15.7867 10.6665 14.9067 10.6665 14.0001C10.6665 13.0934 10.7465 12.2001 10.8798 11.3334H17.1198C17.2398 12.2001 17.3332 13.0934 17.3332 14.0001C17.3332 14.9067 17.2398 15.7867 17.1198 16.6667ZM13.9998 24.6134C12.8932 23.0134 11.9998 21.2401 11.4532 19.3334H16.5465C15.9998 21.2401 15.1065 23.0134 13.9998 24.6134ZM8.6665 8.66675H4.77317C6.03984 6.45341 8.09317 4.74675 10.5332 3.92008C9.73317 5.40008 9.13317 7.00008 8.6665 8.66675ZM4.77317 19.3334H8.6665C9.13317 21.0001 9.73317 22.6001 10.5332 24.0801C8.09317 23.2401 6.03984 21.5334 4.77317 19.3334ZM3.67984 16.6667C3.4665 15.8134 3.33317 14.9201 3.33317 14.0001C3.33317 13.0801 3.4665 12.1867 3.67984 11.3334H8.1865C8.07984 12.2134 7.99984 13.0934 7.99984 14.0001C7.99984 14.9067 8.07984 15.7867 8.1865 16.6667M13.9998 3.37341C15.1065 4.97341 15.9998 6.76008 16.5465 8.66675H11.4532C11.9998 6.76008 12.8932 4.97341 13.9998 3.37341ZM23.2265 8.66675H19.2932C18.8665 7.00008 18.2532 5.40008 17.4532 3.92008C19.9065 4.76008 21.9465 6.45341 23.2265 8.66675ZM13.9998 0.666748C6.6265 0.666748 0.666504 6.66675 0.666504 14.0001C0.666504 17.5363 2.07126 20.9277 4.57175 23.4282C5.80986 24.6663 7.27972 25.6484 8.89739 26.3185C10.5151 26.9885 12.2489 27.3334 13.9998 27.3334C17.5361 27.3334 20.9274 25.9287 23.4279 23.4282C25.9284 20.9277 27.3332 17.5363 27.3332 14.0001C27.3332 12.2491 26.9883 10.5153 26.3182 8.89763C25.6482 7.27996 24.666 5.81011 23.4279 4.57199C22.1898 3.33388 20.72 2.35175 19.1023 1.68169C17.4846 1.01162 15.7508 0.666748 13.9998 0.666748Z" />
</symbol>

<symbol id="quote" viewBox="0 0 42 31" xmlns="http://www.w3.org/2000/svg">
  <path d="M26.8332 30.0833L32.6665 18.4166L23.9165 18.4166L23.9165 0.916588L41.4165 0.91659L41.4165 18.4166L35.5832 30.0833L26.8332 30.0833ZM3.49983 30.0832L9.33317 18.4166L0.583165 18.4166L0.583167 0.916586L18.0832 0.916588L18.0832 18.4166L12.2498 30.0832L3.49983 30.0832Z" fill="black"/>
</symbol>




</svg>