<svg viewBox="0 0 50 50" xmlns="http://www.w3.org/2000/svg">
<path d="M22.5005 32.5H27.5005V37.5H22.5005V32.5ZM22.5005 12.5H27.5005V27.5H22.5005V12.5ZM25.0005 0C11.1755 0 0.000488281 11.25 0.000488281 25C0.000488281 31.6304 2.63441 37.9893 7.32282 42.6777C9.64428 44.9991 12.4003 46.8406 15.4334 48.097C18.4665 49.3534 21.7174 50 25.0005 50C31.6309 50 37.9897 47.3661 42.6782 42.6777C47.3666 37.9893 50.0005 31.6304 50.0005 25C50.0005 21.717 49.3538 18.4661 48.0975 15.4329C46.8411 12.3998 44.9996 9.6438 42.6782 7.32233C40.3567 5.00087 37.6007 3.15938 34.5676 1.90301C31.5344 0.646644 28.2835 0 25.0005 0ZM25.0005 45C19.6962 45 14.6091 42.8929 10.8584 39.1421C7.10763 35.3914 5.00049 30.3043 5.00049 25C5.00049 19.6957 7.10763 14.6086 10.8584 10.8579C14.6091 7.10714 19.6962 5 25.0005 5C30.3048 5 35.3919 7.10714 39.1426 10.8579C42.8934 14.6086 45.0005 19.6957 45.0005 25C45.0005 30.3043 42.8934 35.3914 39.1426 39.1421C35.3919 42.8929 30.3048 45 25.0005 45Z" fill="white"/>
</svg>
