<svg width="60" height="55" viewBox="0 0 60 55" fill="none" xmlns="http://www.w3.org/2000/svg">
<path d="M6.86838 19.9866H18.3483C18.888 19.9866 19.3295 19.5446 19.3295 19.0045V0.982143C19.3295 0.441964 18.888 0 18.3483 0H6.86838C6.32872 0 5.88718 0.441964 5.88718 0.982143V19.0045C5.83812 19.5446 6.32872 19.9866 6.86838 19.9866ZM7.84957 2.01339H17.3181V18.0223H7.84957V2.01339Z" fill="white"/>
<path d="M24.2847 19.9866H35.7647C36.3043 19.9866 36.7459 19.5446 36.7459 19.0045V0.982143C36.7459 0.441964 36.3043 0 35.7647 0H24.2847C23.7451 0 23.3035 0.441964 23.3035 0.982143V19.0045C23.2545 19.5446 23.696 19.9866 24.2847 19.9866ZM25.2659 2.01339H34.7344V18.0223H25.2659V2.01339Z" fill="white"/>
<path d="M41.6516 19.9866H53.1316C53.6712 19.9866 54.1128 19.5446 54.1128 19.0045V0.982143C54.1128 0.441964 53.6712 0 53.1316 0H41.6516C41.1119 0 40.6704 0.441964 40.6704 0.982143V19.0045C40.6704 19.5446 41.1119 19.9866 41.6516 19.9866ZM42.6819 2.01339H52.1504V18.0223H42.6819V2.01339Z" fill="white"/>
<path d="M18.2993 35.0137H6.8684C6.32874 35.0137 5.88721 35.4556 5.88721 35.9958V54.0181C5.88721 54.5583 6.32874 55.0003 6.8684 55.0003H18.3484C18.888 55.0003 19.3296 54.5583 19.3296 54.0181V35.9958C19.3296 35.4556 18.888 35.0137 18.2993 35.0137ZM17.3181 52.9869H7.84959V37.0271H17.3181V52.9869Z" fill="white"/>
<path d="M35.7158 35.0137H24.2849C23.7452 35.0137 23.3037 35.4556 23.3037 35.9958V54.0181C23.3037 54.5583 23.7452 55.0003 24.2849 55.0003H35.7649C36.3045 55.0003 36.7461 54.5583 36.7461 54.0181V35.9958C36.7461 35.4556 36.2555 35.0137 35.7158 35.0137ZM34.7346 52.9869H25.2661V37.0271H34.7346V52.9869Z" fill="white"/>
<path d="M53.1316 35.0137H41.6516C41.1119 35.0137 40.6704 35.4556 40.6704 35.9958V54.0181C40.6704 54.5583 41.1119 55.0003 41.6516 55.0003H53.1316C53.6712 55.0003 54.1128 54.5583 54.1128 54.0181V35.9958C54.1128 35.4556 53.6712 35.0137 53.1316 35.0137ZM52.1013 52.9869H42.6819V37.0271H52.1504V52.9869H52.1013Z" fill="white"/>
<path d="M58.9697 23.6699H0.981194C0.441537 23.6699 0 24.1119 0 24.6521V30.3485C0 30.8887 0.441537 31.3306 0.981194 31.3306H58.9697C59.5094 31.3306 59.9509 30.8887 59.9509 30.3485V24.6521C60 24.1119 59.5585 23.6699 58.9697 23.6699ZM57.9886 29.3663H2.01145V25.6833H57.9886V29.3663Z" fill="white"/>
</svg>
