<svg width="62" height="55" viewBox="0 0 62 55" fill="none" xmlns="http://www.w3.org/2000/svg">
<path d="M30.6462 38.766L30.9728 38.8746L31.2994 38.766C31.4083 38.7117 43.0026 35.1826 53.7261 37.0286L54.9781 37.2458V35.9427C55.0325 23.618 54.9781 8.63277 54.9781 8.46989V7.16683L53.6717 7.38401C52.8007 7.54689 51.9298 7.76407 51.1133 7.98124V3.7463L49.8069 3.96347C48.9904 4.12636 48.1739 4.28924 47.3573 4.50642V0L46.0509 0.325765C37.396 2.28035 32.8235 6.5153 31.0272 8.52418C29.1765 6.5153 24.6041 2.28035 15.8947 0.325765L14.5882 0V4.56071C13.7717 4.34353 12.9552 4.12636 12.1387 4.01777L10.8323 3.80059V8.08983C9.96138 7.87265 9.14488 7.65548 8.27394 7.4926L6.96753 7.27542V37.3544L8.27394 37.1372C18.9429 35.074 30.5373 38.7117 30.6462 38.766ZM52.8551 9.82724C52.8551 13.6278 52.9096 24.8124 52.8551 34.694C48.065 34.0424 43.2748 34.3139 39.3556 34.8569C42.4583 33.6624 46.2687 32.6308 50.1335 32.5222L51.1677 32.4679V10.2616C51.712 10.0987 52.3108 9.99013 52.8551 9.82724ZM48.9904 6.40671V30.4047C44.1458 30.7305 39.5733 32.2507 36.1984 33.771C38.7024 31.6535 42.2406 29.4817 46.4864 28.8302L47.4118 28.6673V6.84107C47.9561 6.67818 48.446 6.5153 48.9904 6.40671ZM45.2344 2.769V26.8213C39.0834 28.0701 34.511 32.0336 32.1159 34.694V10.6417C32.9324 9.55577 36.7428 5.04936 45.2344 2.769ZM16.7656 2.769C25.2028 5.04936 29.0676 9.55577 29.9386 10.6417V34.694C27.489 32.0336 22.9166 28.0701 16.7656 26.8213V2.769ZM13.0097 6.40671C13.554 6.5153 14.0439 6.67818 14.5882 6.84107V28.6673L15.5136 28.8302C19.7595 29.4817 23.2432 31.6535 25.8016 33.771C22.4267 32.305 17.8543 30.7305 13.0097 30.4047V6.40671ZM9.14488 9.82724C9.68921 9.93583 10.288 10.0987 10.8323 10.2616V32.4679L11.8666 32.5222C15.6769 32.6308 19.3784 33.6081 22.4811 34.7483C18.6163 34.2053 13.8806 33.9339 9.14488 34.6397V9.82724Z" fill="white"/>
<path d="M58.8973 10.2075H56.7744V12.3793H58.8973C59.4416 12.3793 59.8771 12.8136 59.8771 13.3566V40.2865H2.17735V13.3566C2.17735 12.8136 2.61282 12.3793 3.15716 12.3793H5.28007V10.2075H3.15716C1.41528 10.2075 0 11.6192 0 13.3566V41.3724V42.4583V46.8561C0 48.5392 1.41528 49.9509 3.15716 49.9509H29.9385V52.8284H18.453C17.8543 52.8284 17.3644 53.3171 17.3644 53.9143C17.3644 54.5116 17.8543 55.0002 18.453 55.0002H43.6014C44.2002 55.0002 44.6901 54.5116 44.6901 53.9143C44.6901 53.3171 44.2002 52.8284 43.6014 52.8284H32.1159V49.9509H58.8973C60.6391 49.9509 62.0544 48.5392 62.0544 46.8018V42.404V41.3181V13.3566C62 11.6192 60.5847 10.2075 58.8973 10.2075ZM59.8226 46.8018C59.8226 47.3447 59.3872 47.7791 58.8428 47.7791H3.15716C2.61282 47.7791 2.17735 47.3447 2.17735 46.8018V42.404H59.8226V46.8018Z" fill="white"/>
<path d="M31.0273 46.5842C31.839 46.5842 32.497 45.9279 32.497 45.1183C32.497 44.3087 31.839 43.6523 31.0273 43.6523C30.2156 43.6523 29.5576 44.3087 29.5576 45.1183C29.5576 45.9279 30.2156 46.5842 31.0273 46.5842Z" fill="white"/>
</svg>
