<svg width="56" height="56" viewBox="0 0 56 56" fill="gray" xmlns="http://www.w3.org/2000/svg">
<path d="M47.9995 25.5H55.4995V30.5H47.9995V25.5ZM0.499512 25.5H7.99951V30.5H0.499512V25.5ZM30.4995 0.5V8H25.4995V0.5H30.4995ZM10.2995 6.75L15.6245 12.1L12.0745 15.625L6.74951 10.325L10.2995 6.75ZM40.3745 12.075L45.6745 6.75L49.2495 10.325L43.9245 15.625L40.3745 12.075ZM27.9995 13C31.9778 13 35.7931 14.5804 38.6061 17.3934C41.4192 20.2064 42.9995 24.0218 42.9995 28C42.9995 33.55 39.9745 38.4 35.4995 41V45.5C35.4995 46.163 35.2361 46.7989 34.7673 47.2678C34.2984 47.7366 33.6626 48 32.9995 48H22.9995C22.3365 48 21.7006 47.7366 21.2317 47.2678C20.7629 46.7989 20.4995 46.163 20.4995 45.5V41C16.0245 38.4 12.9995 33.55 12.9995 28C12.9995 24.0218 14.5799 20.2064 17.3929 17.3934C20.206 14.5804 24.0213 13 27.9995 13ZM32.9995 50.5V53C32.9995 53.663 32.7361 54.2989 32.2673 54.7678C31.7984 55.2366 31.1626 55.5 30.4995 55.5H25.4995C24.8365 55.5 24.2006 55.2366 23.7317 54.7678C23.2629 54.2989 22.9995 53.663 22.9995 53V50.5H32.9995ZM25.4995 43H30.4995V37.675C34.8245 36.575 37.9995 32.65 37.9995 28C37.9995 25.3478 36.9459 22.8043 35.0706 20.9289C33.1952 19.0536 30.6517 18 27.9995 18C25.3473 18 22.8038 19.0536 20.9284 20.9289C19.0531 22.8043 17.9995 25.3478 17.9995 28C17.9995 32.65 21.1745 36.575 25.4995 37.675V43Z"/>
</svg>
