<svg width="61" height="51" viewBox="0 0 61 51" fill="gray" xmlns="http://www.w3.org/2000/svg">
<path d="M57.6582 0H9.0278C7.18234 0 5.68602 1.51186 5.68602 3.37648V16.3281H3.34178C1.49632 16.2777 0 17.7895 0 19.6542V47.6235C0 49.4881 1.49632 51 3.34178 51H15.7612C17.6067 51 19.103 49.4881 19.103 47.6235V43.8943H57.7081C59.5536 43.8943 61.0499 42.3824 61.0499 40.5178V3.37648C61 1.51186 59.5037 0 57.6582 0ZM17.0082 47.6235C17.0082 48.3291 16.4595 48.8834 15.7612 48.8834H3.34178C2.6435 48.8834 2.09485 48.3291 2.09485 47.6235V19.6542C2.09485 18.9486 2.6435 18.3943 3.34178 18.3943H15.7612C16.4595 18.3943 17.0082 18.9486 17.0082 19.6542V47.6235ZM15.7114 16.2777H13.2175V7.81126H40.4007C41.2984 9.07115 44.9395 14.6146 41.897 18.747C41.6476 19.0998 41.6476 19.503 41.8471 19.9061C42.0466 20.2589 42.4456 20.4605 42.8446 20.4101C48.0319 19.8557 52.1218 22.2747 53.3688 23.1314V36.0326H19.0531V19.6542C19.0531 17.7895 17.5568 16.2777 15.7114 16.2777ZM44.2911 10.583C46.9346 12.75 50.2764 16.0761 52.3213 20.1077C50.4759 19.2006 47.7825 18.2431 44.5904 18.2431C45.6877 15.5721 45.139 12.8004 44.2911 10.583ZM44.1913 7.81126H53.4186V17.7895C50.7253 13.3043 46.785 9.77668 44.1913 7.81126ZM58.9051 40.5178C58.9051 41.2233 58.3565 41.7777 57.6582 41.7777H19.0531V38.1492H54.4661C55.0147 38.1492 55.5135 37.6957 55.5135 37.0909V6.75296C55.5135 6.19862 55.0646 5.69466 54.4661 5.69466H12.22C11.6713 5.69466 11.1725 6.14822 11.1725 6.75296V16.2777H7.73099V3.37648C7.73099 2.67095 8.27964 2.1166 8.97792 2.1166H57.6083C58.3066 2.1166 58.8553 2.67095 58.8553 3.37648V40.5178H58.9051Z" fill="gray"/>
<path d="M33.3179 34.2187C33.8666 34.2187 34.3654 33.7652 34.3654 33.1604V10.281C34.3654 9.72661 33.9165 9.22266 33.3179 9.22266C32.7194 9.22266 32.2705 9.67621 32.2705 10.281V33.1604C32.3204 33.7148 32.7693 34.2187 33.3179 34.2187Z" fill="gray"/>
<path d="M12.22 43.8945H6.73346C6.18481 43.8945 5.68604 44.3481 5.68604 44.9528C5.68604 45.5576 6.13493 46.0111 6.73346 46.0111H12.22C12.7686 46.0111 13.2674 45.5576 13.2674 44.9528C13.2674 44.3481 12.8185 43.8945 12.22 43.8945Z" fill="gray"/>
<path d="M9.47652 24.3407C10.3743 24.3407 11.1225 23.5848 11.1225 22.6777C11.1225 21.7706 10.3743 21.0146 9.47652 21.0146C8.57873 21.0146 7.83057 21.7706 7.83057 22.6777C7.83057 23.5848 8.57873 24.3407 9.47652 24.3407Z"/>
</svg>
