<svg width="76" height="46" viewBox="0 0 76 46" fill="gray" xmlns="http://www.w3.org/2000/svg">
<path d="M21.5999 16.7822C21.5999 17.7174 21.6999 18.4756 21.8749 19.0317C22.0749 19.5877 22.3249 20.1943 22.6749 20.8515C22.7999 21.0537 22.8499 21.2559 22.8499 21.4328C22.8499 21.6855 22.6999 21.9383 22.3749 22.191L20.7999 23.2526C20.5749 23.4042 20.3499 23.48 20.1499 23.48C19.8999 23.48 19.6499 23.3537 19.3999 23.1262C19.0499 22.7471 18.7499 22.3427 18.4999 21.9383C18.2499 21.5086 17.9999 21.0284 17.7249 20.4471C15.7749 22.7723 13.3249 23.935 10.3749 23.935C8.2749 23.935 6.5999 23.3284 5.3749 22.1152C4.1499 20.902 3.5249 19.2844 3.5249 17.2624C3.5249 15.1141 4.2749 13.3701 5.7999 12.0559C7.3249 10.7416 9.3499 10.0844 11.9249 10.0844C12.7749 10.0844 13.6499 10.1602 14.5749 10.2866C15.4999 10.413 16.4499 10.6152 17.4499 10.8427V8.99761C17.4499 7.07673 17.0499 5.73717 16.2749 4.95366C15.4749 4.17014 14.1249 3.79102 12.1999 3.79102C11.3249 3.79102 10.4249 3.89212 9.4999 4.11959C8.5749 4.34706 7.6749 4.62508 6.7999 4.97893C6.3999 5.15585 6.0999 5.25695 5.9249 5.3075C5.7499 5.35805 5.6249 5.38333 5.5249 5.38333C5.1749 5.38333 4.9999 5.13058 4.9999 4.59981V3.36135C4.9999 2.95695 5.0499 2.65366 5.1749 2.47673C5.2999 2.29981 5.5249 2.12289 5.8749 1.94596C6.7499 1.49102 7.7999 1.1119 9.0249 0.808601C10.2499 0.48003 11.5499 0.328381 12.9249 0.328381C15.8999 0.328381 18.0749 1.0108 19.4749 2.37563C20.8499 3.74047 21.5499 5.813 21.5499 8.59322V16.7822H21.5999ZM11.4499 20.624C12.2749 20.624 13.1249 20.4723 14.0249 20.169C14.9249 19.8657 15.7249 19.3097 16.3999 18.5515C16.7999 18.0712 17.0999 17.5405 17.2499 16.9339C17.3999 16.3273 17.4999 15.5943 17.4999 14.735V13.6734C16.7749 13.4965 15.9999 13.3449 15.1999 13.2438C14.3999 13.1427 13.6249 13.0921 12.8499 13.0921C11.1749 13.0921 9.9499 13.4207 9.1249 14.1031C8.2999 14.7855 7.8999 15.746 7.8999 17.0097C7.8999 18.1976 8.1999 19.0822 8.8249 19.6888C9.4249 20.3207 10.2999 20.624 11.4499 20.624ZM31.5249 23.3537C31.0749 23.3537 30.7749 23.2778 30.5749 23.1009C30.3749 22.9493 30.1999 22.5954 30.0499 22.1152L24.1749 2.57783C24.0249 2.07234 23.9499 1.74377 23.9499 1.56684C23.9499 1.16245 24.1499 0.934975 24.5499 0.934975H26.9999C27.4749 0.934975 27.7999 1.0108 27.9749 1.18772C28.1749 1.33937 28.3249 1.69322 28.4749 2.17344L32.6749 18.9053L36.5749 2.17344C36.6999 1.66794 36.8499 1.33937 37.0499 1.18772C37.2499 1.03607 37.5999 0.934975 38.0499 0.934975H40.0499C40.5249 0.934975 40.8499 1.0108 41.0499 1.18772C41.2499 1.33937 41.4249 1.69322 41.5249 2.17344L45.4749 19.1075L49.7999 2.17344C49.9499 1.66794 50.1249 1.33937 50.2999 1.18772C50.4999 1.03607 50.8249 0.934975 51.2749 0.934975H53.5999C53.9999 0.934975 54.2249 1.13717 54.2249 1.56684C54.2249 1.69322 54.1999 1.81959 54.1749 1.97124C54.1499 2.12289 54.0999 2.32508 53.9999 2.60311L47.9749 22.1405C47.8249 22.646 47.6499 22.9745 47.4499 23.1262C47.2499 23.2778 46.9249 23.3789 46.4999 23.3789H44.3499C43.8749 23.3789 43.5499 23.3031 43.3499 23.1262C43.1499 22.9493 42.9749 22.6207 42.8749 22.1152L38.9999 5.813L35.1499 22.0899C35.0249 22.5954 34.8749 22.924 34.6749 23.1009C34.4749 23.2778 34.1249 23.3537 33.6749 23.3537H31.5249ZM63.6499 24.0361C62.3499 24.0361 61.0499 23.8844 59.7999 23.5811C58.5499 23.2778 57.5749 22.9493 56.9249 22.5701C56.5249 22.3427 56.2499 22.0899 56.1499 21.8624C56.0499 21.635 55.9999 21.3822 55.9999 21.1548V19.8657C55.9999 19.335 56.1999 19.0822 56.5749 19.0822C56.7249 19.0822 56.8749 19.1075 57.0249 19.1581C57.1749 19.2086 57.3999 19.3097 57.6499 19.4108C58.4999 19.7899 59.4249 20.0932 60.3999 20.2954C61.3999 20.4976 62.3749 20.5987 63.3749 20.5987C64.9499 20.5987 66.1749 20.3207 67.0249 19.7646C67.8749 19.2086 68.3249 18.3998 68.3249 17.3635C68.3249 16.6559 68.0999 16.0745 67.6499 15.5943C67.1999 15.1141 66.3499 14.6844 65.1249 14.28L61.4999 13.1427C59.6749 12.5613 58.3249 11.702 57.4999 10.5646C56.6749 9.45256 56.2499 8.2141 56.2499 6.89981C56.2499 5.83827 56.4749 4.90311 56.9249 4.09432C57.3749 3.28552 57.9749 2.57783 58.7249 2.02179C59.4749 1.44047 60.3249 1.0108 61.3249 0.707502C62.3249 0.404206 63.3749 0.277832 64.4749 0.277832C65.0249 0.277832 65.5999 0.303107 66.1499 0.378931C66.7249 0.454755 67.2499 0.555854 67.7749 0.656953C68.2749 0.783326 68.7499 0.9097 69.1999 1.06135C69.6499 1.213 69.9999 1.36465 70.2499 1.51629C70.5999 1.71849 70.8499 1.92069 70.9999 2.14816C71.1499 2.35036 71.2249 2.62838 71.2249 2.98223V4.17014C71.2249 4.70091 71.0249 4.97893 70.6499 4.97893C70.4499 4.97893 70.1249 4.87783 69.6999 4.67563C68.2749 4.01849 66.6749 3.68992 64.8999 3.68992C63.4749 3.68992 62.3499 3.91739 61.5749 4.39761C60.7999 4.87783 60.3999 5.6108 60.3999 6.64706C60.3999 7.35475 60.6499 7.96135 61.1499 8.44157C61.6499 8.92179 62.5749 9.40201 63.8999 9.83168L67.4499 10.969C69.2499 11.5504 70.5499 12.3591 71.3249 13.3954C72.0999 14.4317 72.4749 15.6196 72.4749 16.9339C72.4749 18.0207 72.2499 19.0064 71.8249 19.8657C71.3749 20.7251 70.7749 21.4833 69.9999 22.0899C69.2249 22.7218 68.2999 23.1767 67.2249 23.5053C66.0999 23.8591 64.9249 24.0361 63.6499 24.0361Z"/>
<path fill-rule="evenodd" clip-rule="evenodd" d="M68.375 36.3195C60.15 42.4613 48.2 45.7217 37.925 45.7217C23.525 45.7217 10.55 40.3382 0.749996 31.3909C-0.0250036 30.6833 0.674996 29.7228 1.6 30.2789C12.2 36.4964 25.275 40.2624 38.8 40.2624C47.925 40.2624 57.95 38.3415 67.175 34.3986C68.55 33.7668 69.725 35.3085 68.375 36.3195Z"/>
<path fill-rule="evenodd" clip-rule="evenodd" d="M71.7999 32.3768C70.7499 31.0119 64.8499 31.7196 62.1749 32.0482C61.3749 32.1493 61.2499 31.4416 61.9749 30.9108C66.6749 27.5746 74.3999 28.535 75.2999 29.6471C76.1999 30.7845 75.0499 38.5944 70.6499 42.335C69.9749 42.9163 69.3249 42.613 69.6249 41.8548C70.6249 39.3526 72.8499 33.7163 71.7999 32.3768Z"/>
</svg>
