<svg width="50" height="50" viewBox="0 0 50 50" fill="none" xmlns="http://www.w3.org/2000/svg">
<path d="M25.0005 0.100098C11.2505 0.100098 0.000488281 11.3251 0.000488281 25.1501C0.000488281 37.6501 9.15049 48.0251 21.1005 49.9001V32.4001H14.7505V25.1501H21.1005V19.6251C21.1005 13.3501 24.8255 9.9001 30.5505 9.9001C33.2755 9.9001 36.1255 10.3751 36.1255 10.3751V16.5501H32.9755C29.8755 16.5501 28.9005 18.4751 28.9005 20.4501V25.1501H35.8505L34.7255 32.4001H28.9005V49.9001C34.7916 48.9697 40.156 45.9639 44.0253 41.4252C47.8946 36.8866 50.0139 31.1142 50.0005 25.1501C50.0005 11.3251 38.7505 0.100098 25.0005 0.100098Z" fill="#146EF5"/>
</svg>
