<svg width="51" height="51" viewBox="0 0 51 51" fill="gray" xmlns="http://www.w3.org/2000/svg">
<path d="M28.8249 50.475L24.7499 40.9C28.6749 39.45 32.3499 37.5 35.7499 35.225L28.8249 50.475ZM10.0999 26.25L0.524902 22.175L15.7749 15.25C13.4999 18.65 11.5499 22.325 10.0999 26.25ZM44.0499 5C44.7499 5 45.3749 5 45.8999 5.125C46.3249 8.6 45.8499 15.75 37.6499 23.95C33.3999 28.225 28.3249 31.5 22.6249 33.675L17.2499 28.425C19.5499 22.65 22.8249 17.575 27.0499 13.35C33.9499 6.45 40.0999 5 44.0499 5ZM44.0499 0C39.0999 0 31.5999 1.725 23.4999 9.825C18.0249 15.3 14.7499 21.325 12.6249 26.6C11.9249 28.475 12.3999 30.525 13.7749 31.925L19.0999 37.225C20.0499 38.175 21.3249 38.75 22.6499 38.75C23.2249 38.75 23.8249 38.6 24.3999 38.375C29.7499 36.325 35.6999 32.975 41.1749 27.5C55.3249 13.35 50.0249 0.975 50.0249 0.975C50.0249 0.975 47.7499 0 44.0499 0ZM32.3499 18.65C30.3999 16.7 30.3999 13.525 32.3499 11.575C34.2999 9.625 37.4749 9.625 39.4249 11.575C41.3499 13.525 41.3749 16.7 39.4249 18.65C37.4749 20.6 34.2999 20.6 32.3499 18.65ZM11.5999 50L20.6999 40.9C19.8499 40.675 19.0249 40.3 18.2749 39.775L8.0749 50H11.5999ZM0.999902 50H4.5249L16.4499 38.1L12.8999 34.575L0.999902 46.475V50ZM0.999902 42.925L11.2249 32.725C10.6999 31.975 10.3249 31.175 10.0999 30.3L0.999902 39.4V42.925Z" />
</svg>
