<svg viewBox="0 0 28 28" fill="gray" xmlns="http://www.w3.org/2000/svg">
  <path d="M19.8132 16.6667C19.9198 15.7867 19.9998 14.9067 19.9998 14.0001C19.9998 13.0934 19.9198 12.2134 19.8132 11.3334H24.3198C24.5332 12.1867 24.6665 13.0801 24.6665 14.0001C24.6665 14.9201 24.5332 15.8134 24.3198 16.6667M17.4532 24.0801C18.2532 22.6001 18.8665 21.0001 19.2932 19.3334H23.2265C21.9465 21.5334 19.9065 23.2401 17.4532 24.0801ZM17.1198 16.6667H10.8798C10.7465 15.7867 10.6665 14.9067 10.6665 14.0001C10.6665 13.0934 10.7465 12.2001 10.8798 11.3334H17.1198C17.2398 12.2001 17.3332 13.0934 17.3332 14.0001C17.3332 14.9067 17.2398 15.7867 17.1198 16.6667ZM13.9998 24.6134C12.8932 23.0134 11.9998 21.2401 11.4532 19.3334H16.5465C15.9998 21.2401 15.1065 23.0134 13.9998 24.6134ZM8.6665 8.66675H4.77317C6.03984 6.45341 8.09317 4.74675 10.5332 3.92008C9.73317 5.40008 9.13317 7.00008 8.6665 8.66675ZM4.77317 19.3334H8.6665C9.13317 21.0001 9.73317 22.6001 10.5332 24.0801C8.09317 23.2401 6.03984 21.5334 4.77317 19.3334ZM3.67984 16.6667C3.4665 15.8134 3.33317 14.9201 3.33317 14.0001C3.33317 13.0801 3.4665 12.1867 3.67984 11.3334H8.1865C8.07984 12.2134 7.99984 13.0934 7.99984 14.0001C7.99984 14.9067 8.07984 15.7867 8.1865 16.6667M13.9998 3.37341C15.1065 4.97341 15.9998 6.76008 16.5465 8.66675H11.4532C11.9998 6.76008 12.8932 4.97341 13.9998 3.37341ZM23.2265 8.66675H19.2932C18.8665 7.00008 18.2532 5.40008 17.4532 3.92008C19.9065 4.76008 21.9465 6.45341 23.2265 8.66675ZM13.9998 0.666748C6.6265 0.666748 0.666504 6.66675 0.666504 14.0001C0.666504 17.5363 2.07126 20.9277 4.57175 23.4282C5.80986 24.6663 7.27972 25.6484 8.89739 26.3185C10.5151 26.9885 12.2489 27.3334 13.9998 27.3334C17.5361 27.3334 20.9274 25.9287 23.4279 23.4282C25.9284 20.9277 27.3332 17.5363 27.3332 14.0001C27.3332 12.2491 26.9883 10.5153 26.3182 8.89763C25.6482 7.27996 24.666 5.81011 23.4279 4.57199C22.1898 3.33388 20.72 2.35175 19.1023 1.68169C17.4846 1.01162 15.7508 0.666748 13.9998 0.666748Z"/>
</svg>
